<?xml version="1.0" encoding="utf-8"?>
<!-- Svg Vector Icons : http://www.onlinewebfonts.com/icon -->
<!DOCTYPE svg PUBLIC "-//W3C//DTD SVG 1.1//EN" "http://www.w3.org/Graphics/SVG/1.1/DTD/svg11.dtd">
<svg version="1.1" xmlns="http://www.w3.org/2000/svg" xmlns:xlink="http://www.w3.org/1999/xlink" x="0px" y="0px" viewBox="0 0 1000 1000" enable-background="new 0 0 1000 1000" xml:space="preserve">
<metadata> Svg Vector Icons : http://www.onlinewebfonts.com/icon </metadata>
<g><path d="M941.7,559c2.6-9.4,11.2-16.3,21.5-16.3c0.3,0,0.6,0,0.8,0c-0.3,0-0.6,0-0.8,0C952.9,542.7,944.3,549.6,941.7,559z"/><path d="M990,499.9c0-270.6-219.4-489.8-490-489.8c-270.6,0-490,219.4-490,490c0,270.6,219.4,489.9,490,489.9c145.8,0,279.3-50.8,365.8-152.4c1.8-2.1,7-9.6,7.4-15.4c0.5-6.8-2.6-15.4-4-18.9c-48.7-122.3-151.3-225-280.2-251.1c48.3-39.9,80.2-91.2,80.2-168.9c0-123-79.8-200.2-178.2-200.2c-98.4,0-178.2,77.3-178.2,200.3c0,83.9,37.5,139.2,92.4,177.2C292.1,594.1,200.3,677,158.4,786c-64.8-77.4-103.9-177.1-103.9-286C54.5,254.1,254,54.6,500,54.6c246,0,445.5,199.4,445.5,445.5c0,20.4-4.3,63.9-4.3,64c0.1,12.3,10,22.2,22.3,22.2c11.7,0,21.3-9.1,22.2-20.6C985.7,565.2,990,521.8,990,499.9z M357.4,383.3c0-98.4,59.8-155.7,133.6-155.7c73.8,0,133.6,57.3,133.6,155.7c0,98.4-59.8,161.4-133.6,161.4C417.2,544.6,357.4,481.7,357.4,383.3z M513.3,589c140.1,0,256.3,99.5,304.2,221.2c1.8,4.5,3.5,9.1,5.1,13.7h0c-80.8,81.9-198,121.4-322.6,121.4c-118.1,0-225.5-46-305.2-121C243.2,680.9,370.2,589,513.3,589z"/></g>
</svg>